# xmcd
#
# Track frame offsets: 
#        150
#        17270
#        33554
#        52931
#        76236
#        100294
#        117031
#        124754
#        150915
#        170612
#        193736
#
# Disc length: 2897 seconds
#
# Revision: 0
# Processed by: cddbd v1.5.2PL0 Copyright (c) Steve Scherf et al.
# Submitted via: ExactAudioCopy v1.3
#
DISCID=7a0b4f0b
DTITLE=Sakis Dovolis Trio - Cross The Line
DYEAR=2018
DGENRE=Instrumental Blues Rock
TTITLE0=All Over You
TTITLE1=Come On
TTITLE2=Everything
TTITLE3=I'm No Angel
TTITLE4=Cross The Line
TTITLE5=Burn It Down
TTITLE6=Shades Of Blue
TTITLE7=Show Me Your Love
TTITLE8=Devil's Road
TTITLE9=Nasty Dogs And Funky Kings
TTITLE10=Legacy
EXTD=
EXTT0=
EXTT1=
EXTT2=
EXTT3=
EXTT4=
EXTT5=
EXTT6=
EXTT7=
EXTT8=
EXTT9=
EXTT10=
PLAYORDER=
